<svg width="131" height="130" viewBox="0 0 131 130" fill="none" xmlns="http://www.w3.org/2000/svg">
<rect x="1" y="2" width="128" height="128" rx="64" fill="white"/>
<path fill-rule="evenodd" clip-rule="evenodd" d="M65.388 0.793793C29.6594 0.793793 0.687263 29.7595 0.687263 65.4945C0.687263 94.082 19.226 118.334 44.9336 126.89C48.166 127.49 49.3531 125.486 49.3531 123.777C49.3531 122.235 49.2931 117.138 49.2653 111.731C31.2655 115.645 27.4673 104.098 27.4673 104.098C24.5241 96.6191 20.2835 94.6306 20.2835 94.6306C14.4121 90.6149 20.726 90.6985 20.726 90.6985C27.222 91.1538 30.6441 97.3659 30.6441 97.3659C36.4147 107.255 45.78 104.397 49.4721 102.744C50.0528 98.5627 51.7295 95.7074 53.5799 94.0917C39.209 92.4578 24.1009 86.9089 24.1009 62.1174C24.1009 55.0535 26.6295 49.2818 30.7684 44.7497C30.0955 43.1212 27.8809 36.5405 31.3941 27.6285C31.3941 27.6285 36.8261 25.8896 49.1903 34.2606C54.3524 32.8259 59.8884 32.1049 65.388 32.0802C70.8843 32.1049 76.4236 32.8238 81.5953 34.2584C93.9444 25.8874 99.3701 27.6263 99.3701 27.6263C102.892 36.5373 100.677 43.119 100.005 44.7476C104.154 49.2797 106.664 55.0514 106.664 62.1152C106.664 86.9657 91.5284 92.4363 77.121 94.0392C79.4428 96.047 81.5106 99.9855 81.5106 106.021C81.5106 114.678 81.4356 121.645 81.4356 123.776C81.4356 125.498 82.6013 127.516 85.8799 126.88C111.572 118.315 130.09 94.0713 130.09 65.4945C130.089 29.7617 101.12 0.793793 65.388 0.793793Z" fill="#181616"/>
<path d="M25.1927 93.6888C25.0502 94.0102 24.5445 94.1067 24.0838 93.887C23.6124 93.677 23.3499 93.2388 23.502 92.9163C23.6413 92.5842 24.1481 92.4931 24.6163 92.7149C25.0877 92.926 25.3556 93.3685 25.1916 93.6899L25.1927 93.6888ZM27.8134 96.6127C27.5059 96.8988 26.9027 96.7659 26.4934 96.3127C26.0691 95.8627 25.9898 95.2595 26.3038 94.9692C26.623 94.6842 27.208 94.8192 27.6323 95.2691C28.0545 95.7256 28.138 96.3234 27.8145 96.6138L27.8134 96.6127ZM30.3655 100.338C29.9691 100.614 29.3198 100.356 28.9191 99.7809C28.5227 99.2045 28.5227 98.5134 28.9298 98.238C29.3294 97.9616 29.9691 98.2113 30.3762 98.7812C30.7705 99.3652 30.7705 100.057 30.3655 100.338ZM33.8594 103.939C33.5058 104.33 32.7494 104.225 32.1966 103.693C31.6319 103.171 31.4744 102.428 31.8291 102.038C32.1891 101.646 32.9487 101.756 33.5048 102.285C34.0694 102.805 34.2397 103.549 33.8615 103.938L33.8594 103.939ZM38.6808 106.029C38.5233 106.536 37.7968 106.767 37.0629 106.55C36.3311 106.328 35.8522 105.736 36.0022 105.224C36.1522 104.713 36.884 104.474 37.6222 104.704C38.354 104.925 38.8329 105.514 38.6808 106.029ZM43.9768 106.416C43.995 106.95 43.3736 107.391 42.6054 107.402C41.8307 107.42 41.2039 106.987 41.1964 106.462C41.1964 105.923 41.805 105.487 42.5786 105.472C43.3468 105.458 43.9778 105.887 43.9778 106.415L43.9768 106.416ZM48.9031 105.578C48.9953 106.098 48.4607 106.633 47.6967 106.775C46.9467 106.914 46.2503 106.591 46.1539 106.075C46.0618 105.542 46.606 105.007 47.356 104.869C48.121 104.737 48.8067 105.05 48.9031 105.578Z" fill="#181616"/>
</svg>
