<svg width="130" height="129" viewBox="0 0 130 129" fill="none" xmlns="http://www.w3.org/2000/svg">
<rect x="2" y="3" width="126" height="126" rx="63" fill="white"/>
<path fill-rule="evenodd" clip-rule="evenodd" d="M65.3819 0.908249C29.6996 0.908249 0.764854 29.8365 0.764854 65.5253C0.764854 94.0759 19.2796 118.296 44.9539 126.841C48.1822 127.441 49.3678 125.44 49.3678 123.733C49.3678 122.192 49.3079 117.102 49.2801 111.702C31.3035 115.611 27.5103 104.079 27.5103 104.079C24.5709 96.6097 20.3357 94.6237 20.3357 94.6237C14.472 90.6132 20.7776 90.6967 20.7776 90.6967C27.2652 91.1515 30.6829 97.3555 30.6829 97.3555C36.4461 107.232 45.7993 104.377 49.4866 102.727C50.0665 98.5507 51.7411 95.6991 53.5891 94.0855C39.2368 92.4537 24.1482 86.912 24.1482 62.1526C24.1482 55.0978 26.6735 49.3336 30.807 44.8073C30.1351 43.1809 27.9233 36.6088 31.4319 27.7082C31.4319 27.7082 36.857 25.9716 49.2052 34.3317C54.3606 32.899 59.8894 32.1788 65.3819 32.1542C70.8711 32.1788 76.4032 32.8968 81.5682 34.3296C93.9014 25.9694 99.3201 27.7061 99.3201 27.7061C102.837 36.6056 100.625 43.1788 99.9546 44.8052C104.098 49.3314 106.605 55.0957 106.605 62.1504C106.605 86.9687 91.4885 92.4323 77.0998 94.0331C79.4186 96.0383 81.4837 99.9717 81.4837 105.999C81.4837 114.645 81.4088 121.603 81.4088 123.732C81.4088 125.451 82.573 127.466 85.8473 126.832C111.507 118.278 130 94.0652 130 65.5253C129.999 29.8387 101.067 0.908249 65.3819 0.908249Z" fill="#181616"/>
<path d="M25.2386 93.6832C25.0963 94.0042 24.5912 94.1005 24.1311 93.8811C23.6603 93.6714 23.3982 93.2337 23.5501 92.9117C23.6892 92.5799 24.1953 92.489 24.6629 92.7105C25.1337 92.9213 25.4013 93.3632 25.2375 93.6842L25.2386 93.6832ZM27.8559 96.6033C27.5488 96.889 26.9464 96.7563 26.5376 96.3037C26.1139 95.8542 26.0347 95.2518 26.3482 94.9618C26.6671 94.6772 27.2513 94.812 27.6751 95.2614C28.0967 95.7173 28.1801 96.3144 27.857 96.6043L27.8559 96.6033ZM30.4047 100.324C30.0088 100.6 29.3604 100.342 28.9602 99.7673C28.5643 99.1917 28.5643 98.5015 28.9709 98.2265C29.37 97.9504 30.0088 98.1997 30.4154 98.769C30.8092 99.3522 30.8092 100.043 30.4047 100.324ZM33.8941 103.92C33.541 104.311 32.7855 104.206 32.2334 103.674C31.6695 103.153 31.5122 102.411 31.8664 102.022C32.2259 101.63 32.9846 101.739 33.5399 102.268C34.1038 102.788 34.274 103.531 33.8962 103.919L33.8941 103.92ZM38.7092 106.008C38.5519 106.514 37.8265 106.744 37.0935 106.528C36.3626 106.306 35.8843 105.715 36.0342 105.203C36.184 104.693 36.9148 104.454 37.652 104.684C38.3829 104.905 38.8612 105.493 38.7092 106.008ZM43.9984 106.394C44.0166 106.927 43.396 107.368 42.6288 107.378C41.8551 107.397 41.2292 106.964 41.2217 106.44C41.2217 105.902 41.8294 105.466 42.602 105.451C43.3692 105.437 43.9995 105.865 43.9995 106.393L43.9984 106.394ZM48.9184 105.557C49.0104 106.076 48.4765 106.61 47.7135 106.753C46.9645 106.892 46.269 106.568 46.1727 106.054C46.0807 105.521 46.6242 104.987 47.3733 104.849C48.1373 104.717 48.8221 105.03 48.9184 105.557Z" fill="#181616"/>
</svg>
