<svg width="128" height="128" viewBox="0 0 128 128" fill="none" xmlns="http://www.w3.org/2000/svg">
<rect width="128" height="128" rx="64" fill="white"/>
<path fill-rule="evenodd" clip-rule="evenodd" d="M64.388 3C31.041 3 4 30.035 4 63.388C4 90.07 21.303 112.705 45.297 120.691C48.314 121.251 49.422 119.381 49.422 117.786C49.422 116.346 49.366 111.589 49.34 106.543C32.54 110.196 28.995 99.418 28.995 99.418C26.248 92.438 22.29 90.582 22.29 90.582C16.81 86.834 22.703 86.912 22.703 86.912C28.766 87.337 31.96 93.135 31.96 93.135C37.346 102.365 46.087 99.697 49.533 98.155C50.075 94.252 51.64 91.587 53.367 90.079C39.954 88.554 25.853 83.375 25.853 60.236C25.853 53.643 28.213 48.256 32.076 44.026C31.448 42.506 29.381 36.364 32.66 28.046C32.66 28.046 37.73 26.423 49.27 34.236C54.088 32.897 59.255 32.224 64.388 32.201C69.518 32.224 74.688 32.895 79.515 34.234C91.041 26.421 96.105 28.044 96.105 28.044C99.392 36.361 97.325 42.504 96.698 44.024C100.57 48.254 102.913 53.641 102.913 60.234C102.913 83.428 88.786 88.534 75.339 90.03C77.506 91.904 79.436 95.58 79.436 101.213C79.436 109.293 79.366 115.796 79.366 117.785C79.366 119.392 80.454 121.275 83.514 120.682C107.494 112.688 124.777 90.06 124.777 63.388C124.776 30.037 97.738 3 64.388 3Z" fill="#181616"/>
<path d="M26.872 89.703C26.739 90.003 26.267 90.093 25.837 89.888C25.397 89.692 25.152 89.283 25.294 88.982C25.424 88.672 25.897 88.587 26.334 88.794C26.774 88.991 27.024 89.404 26.871 89.704L26.872 89.703ZM29.318 92.432C29.031 92.699 28.468 92.575 28.086 92.152C27.69 91.732 27.616 91.169 27.909 90.898C28.207 90.632 28.753 90.758 29.149 91.178C29.543 91.604 29.621 92.162 29.319 92.433L29.318 92.432ZM31.7 95.909C31.33 96.167 30.724 95.926 30.35 95.389C29.98 94.851 29.98 94.206 30.36 93.949C30.733 93.691 31.33 93.924 31.71 94.456C32.078 95.001 32.078 95.647 31.7 95.909ZM34.961 99.27C34.631 99.635 33.925 99.537 33.409 99.04C32.882 98.553 32.735 97.86 33.066 97.496C33.402 97.13 34.111 97.232 34.63 97.726C35.157 98.212 35.316 98.906 34.963 99.269L34.961 99.27ZM39.461 101.221C39.314 101.694 38.636 101.909 37.951 101.707C37.268 101.5 36.821 100.947 36.961 100.469C37.101 99.992 37.784 99.769 38.473 99.984C39.156 100.19 39.603 100.74 39.461 101.221ZM44.404 101.582C44.421 102.08 43.841 102.492 43.124 102.502C42.401 102.519 41.816 102.115 41.809 101.625C41.809 101.122 42.377 100.715 43.099 100.701C43.816 100.688 44.405 101.088 44.405 101.581L44.404 101.582ZM49.002 100.8C49.088 101.285 48.589 101.784 47.876 101.917C47.176 102.047 46.526 101.745 46.436 101.264C46.35 100.766 46.858 100.267 47.558 100.138C48.272 100.015 48.912 100.307 49.002 100.8Z" fill="#181616"/>
</svg>
